# xmcd CD database file
#
# Track frame offsets:
#	150
#	27134
#	50760
#	67030
#	90688
#	115406
#	142968
#	165969
#	188745
#	209922
#
# Disc length: 3146 seconds
#
# Revision: 0
# Processed by: cddbd v1.5PL3 Copyright (c) Steve Scherf et al.
# Submitted via: CDex 1.51
#
DISCID=8f0c480a
DTITLE=Henri Seroka   - Atlantis - Myths And Legends 
DYEAR=1996
DGENRE=New Age
TTITLE0=Atlantis
TTITLE1=Lost Souls
TTITLE2=Alpha 
TTITLE3=Throb 
TTITLE4=Forgotten Dreams 
TTITLE5=Hermaphrodite
TTITLE6=Rebirth 
TTITLE7=Eternal Roads
TTITLE8=Troubled Waters 
TTITLE9=Lost Temple
EXTD=YEAR: 1996
EXTT0=
EXTT1=
EXTT2=
EXTT3=
EXTT4=
EXTT5=
EXTT6=
EXTT7=
EXTT8=
EXTT9=
PLAYORDER=
